<?xml version="1.0" standalone="no"?>
<!DOCTYPE svg PUBLIC "-//W3C//DTD SVG 20010904//EN"
 "http://www.w3.org/TR/2001/REC-SVG-20010904/DTD/svg10.dtd">
<svg version="1.0" xmlns="http://www.w3.org/2000/svg"
 width="300.000000pt" height="169.000000pt" viewBox="0 0 300.000000 169.000000"
 preserveAspectRatio="xMidYMid meet">
<metadata>
Created by potrace 1.10, written by Peter Selinger 2001-2011
</metadata>
<g transform="translate(0.000000,169.000000) scale(0.100000,-0.100000)"
fill="#000000" stroke="none">
<path d="M1404 1355 c-9 -13 -18 -43 -21 -65 -5 -34 -11 -43 -37 -54 -67 -28
-73 -75 -16 -114 27 -18 37 -33 42 -65 23 -129 158 -200 257 -134 42 28 91
112 91 158 0 20 7 30 30 39 63 26 63 78 -1 110 -28 15 -39 27 -39 43 0 12 -9
41 -20 65 -17 38 -22 42 -55 42 -20 0 -47 -7 -61 -17 -23 -15 -28 -15 -60 0
-51 25 -90 22 -110 -8z m113 -16 c27 -11 37 -10 73 6 52 23 70 14 89 -45 13
-39 12 -44 -4 -56 -46 -34 -184 -40 -245 -10 -21 10 -25 18 -23 49 1 21 7 47
14 58 12 23 37 22 96 -2z m-157 -143 c51 -62 302 -62 371 0 15 13 18 13 34 -2
17 -17 16 -19 -9 -41 -40 -34 -101 -47 -221 -47 -98 0 -117 3 -167 26 -58 27
-69 43 -46 66 16 16 23 15 38 -2z m256 -119 c36 5 67 7 69 3 8 -13 -19 -80
-45 -111 -22 -28 -34 -33 -83 -37 -50 -4 -61 -1 -90 21 -35 27 -73 97 -64 120
4 11 19 12 77 4 44 -5 97 -5 136 0z"/>
<path d="M1023 1295 c-7 -20 2 -29 21 -22 9 4 13 13 10 22 -8 19 -23 19 -31 0z"/>
<path d="M2150 1290 c0 -11 7 -20 15 -20 8 0 15 9 15 20 0 11 -7 20 -15 20 -8
0 -15 -9 -15 -20z"/>
<path d="M1807 1293 c-4 -3 -7 -12 -7 -18 0 -9 23 -12 75 -11 43 0 75 5 74 11
0 6 -11 9 -25 9 -13 -1 -24 3 -24 7 0 14 -28 11 -33 -3 -3 -10 -9 -10 -26 0
-24 14 -25 14 -34 5z"/>
<path d="M1970 1281 c0 -16 9 -18 75 -19 62 -1 75 2 75 15 0 9 -6 13 -15 9 -8
-3 -15 0 -15 7 0 8 -3 8 -9 -2 -7 -11 -9 -11 -14 0 -4 10 -6 10 -6 2 -1 -7
-12 -13 -26 -13 -14 0 -25 6 -25 13 0 8 -4 7 -10 -3 -6 -10 -10 -11 -10 -2 0
6 -4 12 -10 12 -5 0 -10 -8 -10 -19z"/>
<path d="M1022 1223 c5 -25 28 -28 28 -4 0 12 -6 21 -16 21 -9 0 -14 -7 -12
-17z"/>
<path d="M2150 1220 c0 -11 7 -20 15 -20 8 0 15 9 15 20 0 11 -7 20 -15 20 -8
0 -15 -9 -15 -20z"/>
<path d="M1017 1174 c-16 -16 -6 -34 19 -34 19 0 25 5 22 17 -3 19 -29 29 -41
17z"/>
<path d="M2147 1174 c-16 -16 -6 -34 19 -34 19 0 25 5 22 17 -3 19 -29 29 -41
17z"/>
<path d="M1005 1100 c-11 -17 5 -30 36 -30 22 0 29 5 29 20 0 15 -7 20 -29 20
-17 0 -33 -4 -36 -10z"/>
<path d="M2135 1100 c-4 -7 -3 -16 3 -22 14 -14 57 -6 57 12 0 18 -50 26 -60
10z"/>
<path d="M990 1025 c0 -11 12 -15 45 -15 33 0 45 4 45 15 0 11 -12 15 -45 15
-33 0 -45 -4 -45 -15z"/>
<path d="M2120 1025 c0 -11 12 -15 45 -15 33 0 45 4 45 15 0 11 -12 15 -45 15
-33 0 -45 -4 -45 -15z"/>
<path d="M957 974 c-4 -4 -7 -13 -7 -21 0 -10 21 -13 86 -13 76 0 85 2 82 18
-3 14 -16 17 -79 20 -41 1 -78 0 -82 -4z"/>
<path d="M2080 960 c0 -20 5 -21 83 -18 65 2 82 6 82 18 0 12 -17 16 -82 18
-78 3 -83 2 -83 -18z"/>
<path d="M1832 940 c-39 -24 -72 -75 -72 -113 0 -16 8 -45 17 -64 16 -35 16
-36 -9 -54 -14 -10 -42 -39 -63 -65 -33 -40 -36 -48 -26 -70 18 -39 53 -31 97
23 22 26 44 56 49 68 9 17 20 20 75 20 73 0 118 24 145 75 47 91 -27 200 -135
200 -27 0 -58 -8 -78 -20z m153 -50 c76 -72 -3 -192 -105 -161 -47 14 -69 39
-77 84 -5 32 -1 41 31 73 34 34 40 36 82 31 28 -3 54 -13 69 -27z m-180 -207
c-46 -69 -50 -74 -72 -89 -21 -13 -23 -13 -23 4 0 18 96 122 112 122 4 0 -4
-17 -17 -37z"/>
<path d="M1824 835 c3 -9 6 -23 6 -31 0 -8 5 -14 10 -14 6 0 10 9 10 20 0 11
5 20 11 20 6 0 8 -9 4 -20 -7 -22 10 -28 19 -7 5 10 7 10 12 0 10 -23 24 -13
24 17 0 30 -14 41 -23 18 -4 -9 -8 -9 -14 -3 -4 6 -21 12 -37 13 -24 3 -28 1
-22 -13z"/>
<path d="M1970 820 c0 -16 5 -30 10 -30 6 0 10 14 10 30 0 17 -4 30 -10 30 -5
0 -10 -13 -10 -30z"/>
<path d="M965 900 c-13 -22 12 -31 76 -28 49 2 64 7 64 18 0 12 -15 16 -67 18
-41 2 -69 -1 -73 -8z"/>
<path d="M2092 893 c3 -15 16 -19 67 -21 44 -2 67 1 72 10 14 22 -1 28 -72 28
-62 0 -70 -2 -67 -17z"/>
<path d="M1425 866 c-16 -13 -66 -36 -110 -51 -44 -16 -90 -37 -102 -48 -22
-19 -35 -67 -47 -169 l-6 -48 245 0 245 0 -6 30 c-7 32 13 66 75 127 28 29 29
30 17 77 -10 38 -19 51 -42 61 -16 6 -35 19 -43 28 -19 24 -31 21 -68 -13 -18
-17 -36 -30 -41 -30 -4 0 -21 14 -37 30 -34 36 -41 36 -80 6z m80 -36 c10 -11
26 -20 35 -20 10 0 29 9 43 20 14 11 30 20 36 20 22 0 81 -43 81 -59 0 -9 5
-22 10 -27 8 -8 -2 -26 -30 -60 -23 -27 -50 -67 -60 -89 l-17 -41 -199 1 -199
0 -3 45 c-4 62 17 121 48 136 45 22 94 42 120 49 14 3 36 15 50 25 32 25 62
25 85 0z"/>
<path d="M994 841 c-2 -2 -4 -10 -4 -18 0 -9 14 -13 45 -13 60 0 63 26 4 32
-22 2 -42 2 -45 -1z"/>
<path d="M2124 841 c-2 -2 -4 -10 -4 -18 0 -9 14 -13 45 -13 60 0 63 26 4 32
-22 2 -42 2 -45 -1z"/>
<path d="M1005 770 c-10 -16 4 -30 31 -30 17 0 24 5 24 20 0 15 -7 20 -24 20
-14 0 -28 -4 -31 -10z"/>
<path d="M2135 770 c-10 -16 4 -30 31 -30 17 0 24 5 24 20 0 15 -7 20 -24 20
-14 0 -28 -4 -31 -10z"/>
<path d="M1010 696 c0 -18 37 -28 44 -11 6 17 -3 25 -26 25 -10 0 -18 -6 -18
-14z"/>
<path d="M2140 695 c0 -11 7 -15 23 -13 12 2 22 8 22 13 0 6 -10 11 -22 13
-16 2 -23 -2 -23 -13z"/>
<path d="M1860 648 c0 -4 -16 -25 -35 -47 -19 -21 -35 -41 -35 -45 0 -3 30 -6
68 -6 l67 0 -3 49 c-4 45 -6 49 -33 53 -16 3 -29 1 -29 -4z"/>
<path d="M1020 631 c0 -12 6 -21 16 -21 9 0 14 7 12 17 -5 25 -28 28 -28 4z"/>
<path d="M2150 631 c0 -12 6 -21 16 -21 9 0 14 7 12 17 -5 25 -28 28 -28 4z"/>
<path d="M1049 513 c-11 -3 -15 -11 -11 -28 6 -33 18 -32 25 3 6 31 7 29 -14
25z"/>
<path d="M1687 513 c-11 -10 -8 -53 3 -53 6 0 10 14 10 30 0 31 -2 35 -13 23z"/>
<path d="M1200 485 c0 -26 15 -34 23 -12 4 8 8 9 14 1 4 -6 40 -11 79 -12 71
-2 71 -2 66 23 -6 31 -22 33 -23 3 0 -22 -1 -22 -9 -3 -9 20 -9 20 -10 0 -1
-15 -3 -17 -8 -5 -4 8 -20 15 -37 15 -16 0 -33 5 -37 10 -5 6 -12 4 -19 -5 -8
-11 -12 -12 -16 -2 -8 21 -23 13 -23 -13z"/>
<path d="M1459 501 c8 -5 11 -16 8 -25 -4 -10 -1 -16 8 -16 9 0 12 6 8 16 -3
9 0 20 8 25 10 6 5 9 -16 9 -21 0 -26 -3 -16 -9z"/>
<path d="M1550 485 c0 -18 5 -25 20 -25 15 0 20 7 20 25 0 18 -5 25 -20 25
-15 0 -20 -7 -20 -25z"/>
<path d="M1870 485 c0 -20 5 -25 25 -25 20 0 25 5 25 25 0 14 -5 25 -11 25 -5
0 -8 -4 -5 -8 2 -4 1 -14 -5 -22 -7 -12 -9 -10 -9 8 0 12 -4 22 -10 22 -5 0
-10 -11 -10 -25z"/>
<path d="M2020 503 c0 -5 -20 -8 -45 -6 -42 3 -45 2 -45 -22 0 -25 23 -35 34
-16 3 5 15 7 27 4 12 -4 25 0 30 8 6 10 9 10 9 2 0 -7 4 -13 9 -13 13 0 8 43
-6 48 -7 2 -13 0 -13 -5z"/>
<path d="M1130 475 c0 -28 8 -31 35 -12 21 16 12 37 -16 37 -14 0 -19 -7 -19
-25z"/>
<path d="M1395 491 c-8 -15 3 -31 21 -31 9 0 14 7 12 17 -4 20 -24 28 -33 14z"/>
<path d="M1507 493 c-14 -13 -6 -33 13 -33 13 0 20 7 20 20 0 19 -20 27 -33
13z"/>
<path d="M1627 494 c-14 -14 -7 -34 12 -34 12 0 18 6 17 17 -3 19 -18 27 -29
17z"/>
<path d="M1711 477 c0 -13 3 -16 6 -8 5 11 7 11 14 0 8 -12 11 -11 19 1 6 10
10 11 10 3 0 -7 7 -13 15 -13 9 0 15 9 15 23 0 18 -2 19 -10 7 -5 -8 -10 -10
-10 -4 0 6 -13 11 -30 12 -25 1 -30 -3 -29 -21z"/>
<path d="M1806 492 c-12 -11 -6 -32 9 -32 8 0 15 5 15 10 0 6 5 10 11 10 5 0
7 -4 4 -10 -3 -5 -1 -10 4 -10 6 0 11 8 11 18 0 16 -41 27 -54 14z"/>
<path d="M2085 492 c-15 -15 -2 -31 25 -30 17 1 30 6 30 12 0 6 5 4 10 -4 8
-12 10 -11 10 7 0 19 -5 22 -35 21 -19 -1 -37 -4 -40 -6z"/>
</g>
</svg>
